# xmcd
#
# Track frame offsets:
#	150
#	14691
#	31616
#	46099
#	65752
#	81192
#	99045
#	117991
#	137405
#	153250
#	179175
#
# Disc length: 2608 seconds
#
# Revision: 1
# Processed by: cddbd v1.5.2PL0 Copyright (c) Steve Scherf et al.
# Submitted via: audiograbber 1.83.01
#
DISCID=860a2e0b
DTITLE=Patrick Sweany Band - C'mon C'mere
DYEAR=2006
DGENRE=Blues
TTITLE0=Nobody Dance
TTITLE1=Frannie's Blues
TTITLE2=Step Outside
TTITLE3=World Of Love
TTITLE4=The Waterfall
TTITLE5=Stark County
TTITLE6=The Hornet
TTITLE7=An Understanding
TTITLE8=Over But The Cryin'
TTITLE9=One More Time
TTITLE10=Bounce
EXTD=
EXTT0=
EXTT1=
EXTT2=
EXTT3=
EXTT4=
EXTT5=
EXTT6=
EXTT7=
EXTT8=
EXTT9=
EXTT10=
PLAYORDER=
